<?xml version="1.0" standalone="no"?>
<!DOCTYPE svg PUBLIC "-//W3C//DTD SVG 20010904//EN"
 "http://www.w3.org/TR/2001/REC-SVG-20010904/DTD/svg10.dtd">
<svg version="1.0" xmlns="http://www.w3.org/2000/svg"
 width="512.000000pt" height="512.000000pt" viewBox="0 0 512.000000 512.000000"
 preserveAspectRatio="xMidYMid meet">
<metadata>
Created by potrace 1.14, written by Peter Selinger 2001-2017
</metadata>
<g transform="translate(0.000000,512.000000) scale(0.100000,-0.100000)"
fill="#000000" stroke="none">
<path d="M1910 5104 c-537 -94 -949 -520 -1026 -1059 -3 -22 -7 -166 -9 -320
-2 -154 -8 -300 -13 -324 -31 -133 101 -262 254 -249 l54 5 1 -36 c3 -133 62
-310 147 -445 75 -118 239 -269 345 -317 32 -14 30 -4 32 -149 3 -156 -11
-180 -121 -213 -27 -9 -134 -46 -239 -82 -104 -37 -267 -93 -362 -125 -201
-68 -254 -95 -322 -162 -94 -96 -98 -107 -232 -778 -128 -641 -131 -667 -94
-741 23 -45 46 -66 98 -89 41 -19 93 -20 2142 -20 l2101 0 44 23 c107 54 140
204 57 257 -20 12 -87 18 -227 20 l-45 0 32 20 c65 39 62 4 63 799 0 786 1
770 -56 808 -27 17 -77 18 -889 23 l-860 5 -88 34 c-94 35 -136 68 -138 104 0
12 -2 75 -2 139 l-2 117 75 49 c205 137 366 376 405 602 3 19 8 44 10 55 2 11
4 38 4 60 l1 40 78 0 c64 0 85 4 122 25 89 50 134 145 111 233 -6 26 -12 198
-14 442 -2 220 -7 414 -11 430 -28 122 -65 209 -119 280 -38 49 -94 102 -127
120 -14 7 -63 51 -110 97 -93 91 -185 156 -300 212 -72 35 -201 81 -258 91
-15 2 -60 11 -99 18 -92 18 -315 18 -413 1z"/>
</g>
</svg>
